<svg data-v-0dd9719b="" version="1.0" xmlns="http://www.w3.org/2000/svg" xmlns:xlink="http://www.w3.org/1999/xlink" width="100%" height="100%" viewBox="0 0 340.000000 250.000000" preserveAspectRatio="xMidYMid meet" color-interpolation-filters="sRGB" style="margin: auto;"> <rect data-v-0dd9719b="" x="0" y="0" width="100%" height="100%" fill="#fff" fill-opacity="1" class="background"></rect> <rect data-v-0dd9719b="" x="0" y="0" width="100%" height="100%" fill="url(#watermark)" fill-opacity="1" class="watermarklayer"></rect> <g data-v-0dd9719b="" fill="#333" class="icon-text-wrapper icon-svg-group iconsvg" transform="translate(48.954994201660156,93.3764476776123)"><g class="iconsvg-imagesvg" transform="translate(0,0)"><g><rect fill="#333" fill-opacity="0" stroke-width="2" x="0" y="0" width="60" height="63.24710644488015" class="image-rect"></rect> <svg x="0" y="0" width="60" height="63.24710644488015" filtersec="colorsb9914834292" class="image-svg-svg primary" style="overflow: visible;"><svg xmlns="http://www.w3.org/2000/svg" viewBox="0.0020338604226708412 -0.0009073932305909693 79.79246520996094 84.11099243164062"><g><g fill="#ad7563"><path d="M55.5 47.88a.75.75 0 0 0 .17-.83.77.77 0 0 0-.71-.48H24.85a.76.76 0 0 0-.71.47.79.79 0 0 0 .17.84l1.75 1.74a.74.74 0 0 0 .54.23h26.57a.79.79 0 0 0 .54-.22zM14.83 71.49V51.66a.8.8 0 0 0-.22-.55l-1.75-1.75a.77.77 0 0 0-1.31.55v22.62a.8.8 0 0 0 .23.55l7.72 7.72H6.88l3.68-3.67a.8.8 0 0 0 .22-.55.77.77 0 0 0-.22-.54L9.32 74.8a.78.78 0 0 0-1.08 0l-8 8a.77.77 0 0 0-.17.84.76.76 0 0 0 .71.47h24.8a.74.74 0 0 0 .7-.47.75.75 0 0 0-.16-.84z"></path><path d="M5.77 43a.76.76 0 0 0-.47.71V68.9l-2.83 2.82a.82.82 0 0 0-.22.55v2.48a.76.76 0 0 0 .48.71.92.92 0 0 0 .28.05.8.8 0 0 0 .55-.22l4.79-4.8a.76.76 0 0 0 .23-.55V45.43a.74.74 0 0 0-.23-.54L6.6 43.15a.77.77 0 0 0-.83-.15zM22.74 8.94l-4.8 4.81a.77.77 0 0 0-.22.54v17.94a.76.76 0 0 0 .22.54l1.75 1.74a.79.79 0 0 0 .54.22.8.8 0 0 0 .3-.06A.76.76 0 0 0 21 34V15.33l2.82-2.82a.75.75 0 0 0 .23-.55V9.49a.76.76 0 0 0-.48-.71.77.77 0 0 0-.83.16z"></path><path d="M17.94 70.49l4.8 4.8a.79.79 0 0 0 .54.22.8.8 0 0 0 .3-.06.74.74 0 0 0 .47-.7v-2.48a.77.77 0 0 0-.22-.54L21 68.9V49.07a.76.76 0 0 0-.22-.54l-12.2-12.2v-22a.82.82 0 0 0-.22-.55l-4.8-4.84a.77.77 0 0 0-1.31.54V12a.76.76 0 0 0 .22.54l2.83 2.78v22a.76.76 0 0 0 .22.54l12.2 12.2v19.88a.8.8 0 0 0 .22.55zM71.55 74.8a.78.78 0 0 0-1.08 0L69.23 76a.77.77 0 0 0 0 1.08l3.68 3.68H60.29L68 73.07a.76.76 0 0 0 .22-.54V49.91a.76.76 0 0 0-.47-.71.79.79 0 0 0-.84.16l-1.75 1.76a.76.76 0 0 0-.22.54v19.83L53.68 82.77a.74.74 0 0 0-.17.83.77.77 0 0 0 .71.48H79a.76.76 0 0 0 .7-.47.77.77 0 0 0-.16-.84z"></path><path d="M74 43a.77.77 0 0 0-.83.16l-1.75 1.74a.76.76 0 0 0-.23.54v24.5a.76.76 0 0 0 .23.55l4.8 4.8a.77.77 0 0 0 .54.22.84.84 0 0 0 .3-.06.75.75 0 0 0 .47-.7v-2.48a.78.78 0 0 0-.23-.54l-2.8-2.83V43.7a.77.77 0 0 0-.5-.7zM59.27 34.67a.72.72 0 0 0 .29.06.77.77 0 0 0 .54-.22l1.75-1.74a.73.73 0 0 0 .23-.54V14.29a.74.74 0 0 0-.23-.54L57.05 9a.77.77 0 0 0-1.31.54V12a.81.81 0 0 0 .23.55l2.82 2.82V34a.77.77 0 0 0 .48.67z"></path><path d="M77.54 9.49a.76.76 0 0 0-.48-.71.77.77 0 0 0-.83.16l-4.8 4.8a.79.79 0 0 0-.22.54v22L59 48.53a.73.73 0 0 0-.23.54V68.9L56 71.73a.78.78 0 0 0-.23.54v2.48a.77.77 0 0 0 .48.71 1 1 0 0 0 .29.05.77.77 0 0 0 .54-.22l4.8-4.8a.76.76 0 0 0 .23-.55V50.11l12.2-12.19a.76.76 0 0 0 .23-.55v-22l2.82-2.83a.73.73 0 0 0 .23-.54z"></path><path d="M11.51 12.59v22.19a.8.8 0 0 0 .22.55l8.15 8.15a.78.78 0 0 0 .55.22h38.94a.77.77 0 0 0 .54-.22l8.15-8.15a.76.76 0 0 0 .23-.55V12.59L79.57 1.31a.79.79 0 0 0 .17-.84A.76.76 0 0 0 79 0H54.26a.76.76 0 0 0-.71.47.77.77 0 0 0 .17.84l8 8a.78.78 0 0 0 1.08 0L64 8.06a.78.78 0 0 0 .23-.54A.74.74 0 0 0 64 7l-3.69-3.7H73L65.23 11a.74.74 0 0 0-.23.54v22.2l-6.67 6.68H21.47l-6.68-6.68V11.55a.77.77 0 0 0-.22-.54L6.84 3.28h12.62L15.76 7a.77.77 0 0 0 0 1.08L17 9.3a.79.79 0 0 0 1.09 0l8-8a.77.77 0 0 0 .17-.84.76.76 0 0 0-.73-.46H.77a.74.74 0 0 0-.71.47.77.77 0 0 0 .17.84z"></path></g></g></svg></svg> <!----></g></g> <g transform="translate(67,3.8973026275634766)"><g data-gra="path-name" fill-rule="" class="tp-name iconsvg-namesvg" transform="translate(0,0)"><g transform="scale(1)"><g><path d="M34.96-8.87L34.96-1.67C34.96-1.26 34.7-0.99 34.29-0.99L14.94-0.99C14.54-0.99 14.26-1.26 14.26-1.67L14.26-8.87C14.26-9.27 14.54-9.54 14.94-9.54L34.29-9.54C34.7-9.54 34.96-9.27 34.96-8.87ZM36.67-14.13L12.55-14.13C10.39-14.13 8.96-12.69 8.96-10.53L8.96 0C8.96 2.16 10.39 3.6 12.55 3.6L36.67 3.6C38.84 3.6 40.27 2.16 40.27 0L40.27-10.53C40.27-12.69 38.84-14.13 36.67-14.13ZM35.91-20.75C38.34-19.13 40.91-17.59 43.65-16.2L45.05-21.6C36.85-25.83 31.36-30.15 27-36L22.27-36C17.91-30.2 12.46-25.74 4.23-21.6L5.58-16.29C8.37-17.73 11.03-19.3 13.5-20.93L13.77-18.04 35.91-18.04ZM33.34-22.54L15.84-22.54C19.26-25.02 22.23-27.68 24.66-30.42 27-27.68 29.92-25.02 33.34-22.54ZM79.78-18.13L79.78-29.7 82.48-29.7C82.89-29.7 83.16-29.43 83.16-29.02L83.16-18.81C83.16-18.4 82.89-18.13 82.48-18.13ZM74.75-18.13L71.41-18.13 71.41-29.02C71.41-29.43 71.69-29.7 72.09-29.7L74.75-29.7ZM71.41-13.63L84.78-13.63C86.94-13.63 88.38-15.07 88.38-17.23L88.38-30.6C88.38-32.76 86.94-34.2 84.78-34.2L69.7-34.2C67.55-34.2 66.11-32.76 66.11-30.6L66.11-1.98C66.11 1.13 68.4 3.28 71.06 3.51 75.56 3.87 80.01 3.87 84.69 3.51 87.39 3.28 89.69 1.35 89.69-1.21L89.69-6.93 84.47-7.65 84.47-3.19C84.47-2.02 83.66-1.4 82.44-1.26 79.6-0.94 76.19-0.85 73.44-1.26 72.09-1.44 71.41-1.98 71.41-3.19ZM59.09-9.31L59.09-1.75C59.09-0.99 58.59-0.49 57.83-0.49 57.11-0.49 56.2-0.58 55.53-0.77L56.56 3.87C57.42 4.09 58.68 4.27 59.98 4.18 62.41 4 64.03 2.48 64.03 0L64.03-31.05C64.03-33.12 62.86-34.2 60.8-34.2L54.05-34.2C51.98-34.2 50.85-33.07 50.85-31.05L50.85-12.38C50.85-6.17 50.35-1.67 48.87 4.5L54.23 4.5C55.22-0.67 55.62-4.86 55.75-9.31ZM59.09-13.46L55.8-13.46 55.8-19.48 59.09-19.48ZM59.09-23.63L55.8-23.63 55.8-29.16C55.8-29.43 55.94-29.61 56.2-29.61L58.59-29.61C58.86-29.61 59.09-29.43 59.09-29.16ZM128.3-8.19L100.17-8.19 100.53-3.69 128.3-3.69ZM133.2-1.4L95.22-1.4 95.58 3.19 133.2 3.19ZM124.6-18.27L132.97-18.27 132.97-22.77 114.25-22.77 114.93-24.25 109.13-24.25C108.86-23.76 108.59-23.27 108.27-22.77L95.27-22.77 95.63-18.27 104.49-18.27C101.75-15.79 98.14-13.95 93.42-12.24L94.77-7.15C98.46-8.69 101.75-10.35 104.53-12.2L104.67-10.48 124.11-10.48 124.11-12.42C126.85-10.57 130-8.87 133.6-7.25L134.95-12.42C131-13.95 127.57-15.79 124.6-18.27ZM120.87-14.89L108.09-14.89C109.31-15.93 110.38-17.05 111.38-18.27L117.45-18.27C118.48-17.1 119.61-15.97 120.87-14.89ZM107.19-29.65C109.58-31.32 111.47-33.44 112.5-36L106.38-36C104.98-33.62 103.09-31.68 99.9-29.65L98.95-29.65 99.36-25.15 128.03-25.15C130.23-25.15 130.86-27.31 129.74-28.71L125.01-34.74 118.71-34.74 122.72-29.65ZM146.43-9.49C146.56-10.35 146.66-11.16 146.61-11.74 146.38-13.68 145.17-14.67 143.1-14.67L139.19-14.67 139.63-10.26 142.2-10.26C142.02-8.41 140.26-4.46 137.61-1.98L138.87 2.65C143.87-1.75 145.49-4 146.43-9.49ZM151.51-32.27L139.91-32.27 140.35-28.13 149.04-28.13C147.65-25.7 144.41-23.27 138.65-21.42L140.53-16.83C148.23-19.66 152.1-22.72 154.31-27.72 155.25-29.83 154.22-32.27 151.51-32.27ZM171.9-8.59C174.42-9.54 176.04-10.44 177.93-11.74L177.93-16.74C175.32-14.8 173.47-13.9 170.46-12.87L170.46-18.59 165.78-18.59 165.78-1.8C165.78-0.81 165.42-0.4 164.29-0.36 163.26-0.32 162.45-0.36 161.19-0.63 163.44-3.01 164.29-5.49 164.93-9.54 165.06-10.39 165.15-11.21 165.1-11.79 164.88-13.72 163.66-14.71 161.59-14.71L157.68-14.71 158.13-10.3 160.69-10.3C160.47-8.01 159.48-5.54 157.5-3.46L154.53-10.08C155.34-10.48 156.19-10.89 157.14-11.38L157.14-16.06C155.07-15.07 153.63-14.45 151.69-13.68L151.69-18.59 147.01-18.59 147.01-1.8C147.01-0.77 146.66-0.36 145.57-0.32 144.41-0.27 143.87-0.22 142.43-0.54L143.59 3.73C145.22 3.96 145.8 4 147.28 3.96 150.34 3.87 151.69 2.56 151.69-0.63L151.69-6.71 153.31-2.65 156.65-2.65C156.28-2.34 155.88-2.02 155.43-1.71L156.69 3.1C158.53 1.84 159.93 0.72 161.01-0.4L162.09 3.6C163.66 3.92 164.56 3.96 166 3.92 169.11 3.78 170.46 2.65 170.46-0.67L170.46-4.14C172.35-1.53 174.74 0.63 177.7 2.61L179.32-2.65C176.35-4.09 173.84-5.98 171.9-8.59ZM168.25-26.41C172.31-27.9 174.82-30.11 176.67-34.2L170.73-34.2C169.6-32.31 167.72-30.73 164.43-29.38 163.35-30.46 162.45-31.68 161.64-33.07L161.64-36 156.24-36 156.24-23.98C156.24-22.5 155.79-21.87 154.53-21.87 152.91-21.87 152.5-21.91 151.02-22.32L152.24-17.68C153.36-17.32 154.44-17.19 156.78-17.19 160.06-17.19 161.64-18.86 161.64-22.63L161.64-25.92C164.88-21.87 169.11-19.75 176.85-17.37L178.43-22.5C174.1-23.63 170.87-24.88 168.25-26.41Z" transform="translate(-4.230000019073486, 36)"></path></g> <!----> <!----> <!----> <!----> <!----> <!----> <!----></g></g> <g data-gra="path-slogan" fill-rule="" class="tp-slogan iconsvg-slogansvg" fill="#333" transform="translate(41.420005798339844,46.5)"><!----> <!----> <g transform="scale(1, 1)"><g transform="scale(1)"><path d="M2.06-5.06L6.56-5.06L6.56-8.58L7.73-8.58L7.73 0L6.56 0L6.56-3.98L2.06-3.98L2.06 0L0.89 0L0.89-8.58L2.06-8.58L2.06-5.06ZM10.83-1.03L15.98-1.03L15.98 0L9.66 0L9.66-8.58L15.89-8.58L15.89-7.59L10.83-7.59L10.83-4.92L15.52-4.92L15.52-3.89L10.83-3.89L10.83-1.03ZM23.02-3.89L18.80-3.89L18.80 0L17.63 0L17.63-8.58L23.58-8.58L23.58-7.59L18.80-7.59L18.80-4.92L23.02-4.92L23.02-3.89ZM26.06-1.03L31.22-1.03L31.22 0L24.89 0L24.89-8.58L31.13-8.58L31.13-7.59L26.06-7.59L26.06-4.92L30.75-4.92L30.75-3.89L26.06-3.89L26.06-1.03ZM32.91-8.58L34.08-8.58L34.08 0L32.91 0L32.91-8.58ZM45.66-6.09L45.66-6.09L44.58-6.09Q44.48-7.73 42.42-7.83L42.42-7.83Q40.50-7.78 40.50-6.33L40.50-6.33Q40.50-5.39 41.53-5.25L41.53-5.25L43.97-4.69Q45.89-4.22 45.89-2.34L45.89-2.34Q45.84 0.05 42.52 0.14L42.52 0.14Q40.69 0.14 39.94-0.61L39.94-0.61Q39-1.31 39.05-2.77L39.05-2.77L40.17-2.77Q40.22-0.80 42.52-0.75L42.52-0.75Q44.77-0.80 44.81-2.20L44.81-2.20Q45-3.38 42.94-3.75L42.94-3.75L41.16-4.13Q39.33-4.64 39.33-6.19L39.33-6.19Q39.47-8.72 42.33-8.81L42.33-8.81Q45.56-8.81 45.66-6.09ZM53.02 0L52.17-2.48L48.70-2.48L47.81 0L46.64 0L49.88-8.58L51.19-8.58L54.28 0L53.02 0ZM50.44-7.31L49.08-3.52L51.75-3.52L50.48-7.31L50.44-7.31ZM56.72-8.58L61.03-1.64L61.03-8.58L62.16-8.58L62.16 0L60.84 0L56.48-6.94L56.44-6.94L56.44 0L55.31 0L55.31-8.58L56.72-8.58ZM72.19-8.58L72.19 0L71.06 0L71.06-5.06Q71.06-5.77 71.06-7.22L71.06-7.22L68.63 0L67.45 0L65.06-7.22L65.02-7.22Q65.02-6.70 65.06-5.67L65.06-5.67Q65.06-5.16 65.06-5.06L65.06-5.06L65.06 0L63.89 0L63.89-8.58L65.58-8.58L68.06-1.31L70.50-8.58L72.19-8.58ZM74.06-8.58L75.23-8.58L75.23 0L74.06 0L74.06-8.58ZM82.88 0L82.03-2.48L78.56-2.48L77.67 0L76.50 0L79.73-8.58L81.05-8.58L84.14 0L82.88 0ZM80.30-7.31L78.94-3.52L81.61-3.52L80.34-7.31L80.30-7.31ZM91.97-4.27L91.97-4.27Q91.78-7.64 88.97-7.83L88.97-7.83Q86.11-7.69 85.97-4.27L85.97-4.27Q86.11-0.94 88.97-0.80L88.97-0.80Q91.78-0.98 91.97-4.27ZM93.14-4.27L93.14-4.27Q92.86 0 88.97 0.14L88.97 0.14Q85.03 0 84.75-4.27L84.75-4.27Q84.98-8.72 88.97-8.81L88.97-8.81Q92.86-8.67 93.14-4.27Z" transform="translate(-0.890625, 8.8125)"></path></g></g></g></g></g><defs v-gra="od"></defs></svg>